<svg id="Layer_1" data-name="Layer 1" xmlns="http://www.w3.org/2000/svg" xmlns:xlink="http://www.w3.org/1999/xlink" viewBox="0 0 595.28 447.11"><defs><style>.cls-1{fill:none;}.cls-2{fill:#414042;}.cls-3{fill:#0ea3be;}.cls-4{fill:#fff;}.cls-5{fill:#aadee8;}.cls-6{fill:#f2f2f2;}.cls-7{clip-path:url(#clip-path);}.cls-8{clip-path:url(#clip-path-2);}.cls-9{fill:#58595b;}</style><clipPath id="clip-path"><polygon class="cls-1" points="390.77 194.7 386.19 194.7 381.62 194.7 375.13 269.83 386.19 281.66 397.25 269.83 390.77 194.7"/></clipPath><clipPath id="clip-path-2"><polygon class="cls-1" points="390.77 176.78 386.19 176.78 381.62 176.78 377.04 181.35 381.62 194.7 386.19 194.7 390.77 194.7 395.35 181.35 390.77 176.78"/></clipPath></defs><circle class="cls-2" cx="242.81" cy="146.32" r="79.78"/><path class="cls-3" d="M381.79,47a89.54,89.54,0,0,0-78.74,46.84V175.3h-2A89.58,89.58,0,1,0,381.79,47Z"/><rect class="cls-4" x="303.17" y="175.41" width="159.86" height="120.8"/><circle class="cls-4" cx="384.11" cy="134.01" r="36.95"/><rect class="cls-4" x="370.02" y="163.45" width="28.19" height="26.19"/><circle class="cls-3" cx="329.74" cy="235.81" r="20.77"/><rect class="cls-3" x="298.4" y="229.22" width="16.63" height="13.19"/><path class="cls-3" d="M191,176.1a60.4,60.4,0,1,0,0,119.42Z"/><path class="cls-3" d="M252,175.41a20.78,20.78,0,1,1-18.39,0H182.37v120.8h51.21a20.77,20.77,0,1,1,18.39,0h51.2V175.41Z"/><circle class="cls-5" cx="437.48" cy="235.81" r="20.77"/><rect class="cls-5" x="453.54" y="229.22" width="16.63" height="13.19"/><path class="cls-5" d="M463,175.41v120.8a60.4,60.4,0,0,0,0-120.8Z"/><polygon class="cls-6" points="390.77 194.7 386.19 194.7 381.62 194.7 375.13 269.83 386.19 281.66 397.25 269.83 390.77 194.7"/><polygon class="cls-6" points="390.77 176.78 386.19 176.78 381.62 176.78 377.04 181.35 381.62 194.7 386.19 194.7 390.77 194.7 395.35 181.35 390.77 176.78"/><g class="cls-7"><rect class="cls-3" x="330.42" y="232.54" width="101.33" height="2.34" transform="translate(-64.7 267.16) rotate(-35.81)"/><rect class="cls-3" x="334.3" y="237.91" width="101.33" height="2.34" transform="translate(-67.11 270.44) rotate(-35.81)"/><rect class="cls-3" x="338.17" y="243.29" width="101.33" height="2.34" transform="translate(-69.52 273.73) rotate(-35.81)"/><rect class="cls-3" x="342.05" y="248.66" width="101.33" height="2.34" transform="translate(-71.94 277.01) rotate(-35.81)"/><rect class="cls-3" x="345.93" y="254.03" width="101.33" height="2.34" transform="translate(-74.35 280.29) rotate(-35.81)"/><rect class="cls-3" x="349.8" y="259.4" width="101.33" height="2.34" transform="translate(-76.76 283.58) rotate(-35.81)"/><rect class="cls-3" x="353.68" y="264.78" width="101.33" height="2.34" transform="translate(-79.17 286.86) rotate(-35.81)"/><rect class="cls-3" x="357.55" y="270.15" width="101.33" height="2.34" transform="translate(-81.58 290.14) rotate(-35.81)"/><rect class="cls-3" x="361.43" y="275.52" width="101.33" height="2.34" transform="translate(-83.99 293.43) rotate(-35.81)"/><rect class="cls-3" x="299.41" y="189.56" width="101.33" height="2.34" transform="translate(-45.42 240.89) rotate(-35.81)"/><rect class="cls-3" x="303.28" y="194.93" width="101.33" height="2.34" transform="translate(-47.83 244.17) rotate(-35.81)"/><rect class="cls-3" x="307.16" y="200.3" width="101.33" height="2.34" transform="translate(-50.24 247.45) rotate(-35.81)"/><rect class="cls-3" x="311.04" y="205.68" width="101.33" height="2.34" transform="translate(-52.65 250.74) rotate(-35.81)"/><rect class="cls-3" x="314.91" y="211.05" width="101.33" height="2.34" transform="translate(-55.06 254.02) rotate(-35.81)"/><rect class="cls-3" x="318.79" y="216.42" width="101.33" height="2.34" transform="translate(-57.47 257.31) rotate(-35.81)"/><rect class="cls-3" x="322.67" y="221.79" width="101.33" height="2.34" transform="translate(-59.88 260.59) rotate(-35.81)"/><rect class="cls-3" x="326.54" y="227.17" width="101.33" height="2.34" transform="translate(-62.29 263.87) rotate(-35.81)"/></g><g class="cls-8"><rect class="cls-3" x="389.3" y="86.12" width="2.34" height="101.33" transform="translate(51.07 373.4) rotate(-54.19)"/><rect class="cls-3" x="385.42" y="91.49" width="2.34" height="101.33" transform="translate(45.11 372.49) rotate(-54.19)"/><rect class="cls-3" x="381.54" y="96.87" width="2.34" height="101.33" transform="translate(39.14 371.57) rotate(-54.19)"/><rect class="cls-3" x="377.67" y="102.24" width="2.34" height="101.33" transform="translate(33.18 370.66) rotate(-54.19)"/><rect class="cls-3" x="373.79" y="107.61" width="2.34" height="101.33" transform="translate(27.21 369.74) rotate(-54.19)"/><rect class="cls-3" x="369.91" y="112.98" width="2.34" height="101.33" transform="translate(21.25 368.83) rotate(-54.19)"/><rect class="cls-3" x="366.04" y="118.36" width="2.34" height="101.33" transform="translate(15.28 367.91) rotate(-54.19)"/><rect class="cls-3" x="362.16" y="123.73" width="2.34" height="101.33" transform="translate(9.32 367) rotate(-54.19)"/><rect class="cls-3" x="358.28" y="129.1" width="2.34" height="101.33" transform="translate(3.35 366.08) rotate(-54.19)"/><rect class="cls-3" x="420.31" y="43.14" width="2.34" height="101.33" transform="translate(98.8 380.72) rotate(-54.19)"/><rect class="cls-3" x="416.43" y="48.51" width="2.34" height="101.33" transform="translate(92.83 379.8) rotate(-54.19)"/><rect class="cls-3" x="412.56" y="53.88" width="2.34" height="101.33" transform="matrix(0.59, -0.81, 0.81, 0.59, 86.87, 378.89)"/><rect class="cls-3" x="408.68" y="59.26" width="2.34" height="101.33" transform="translate(80.9 377.97) rotate(-54.19)"/><rect class="cls-3" x="404.8" y="64.63" width="2.34" height="101.33" transform="translate(74.94 377.06) rotate(-54.19)"/><rect class="cls-3" x="400.93" y="70" width="2.34" height="101.33" transform="translate(68.97 376.14) rotate(-54.19)"/><rect class="cls-3" x="397.05" y="75.37" width="2.34" height="101.33" transform="translate(63.01 375.23) rotate(-54.19)"/><rect class="cls-3" x="393.17" y="80.75" width="2.34" height="101.33" transform="translate(57.04 374.31) rotate(-54.19)"/></g><path class="cls-3" d="M170.05,318.48a18.55,18.55,0,0,1,18.57,18.57,17.87,17.87,0,0,1-3,10.06,18.37,18.37,0,0,1-7.75,6.72l10.71,13.79h-20.4l-9.25-12H141.86v12H122.71V318.48Zm-28.19,14.37v8.37h23.37a4.18,4.18,0,0,0,4.2-4.17,4.17,4.17,0,0,0-4.2-4.2Z"/><path class="cls-3" d="M194.56,318.52h57.51v12.57H213.72v6.29h38.35v11.37H213.72V355h38.35v12.61H194.56Z"/><path class="cls-3" d="M281.4,318.44V352h38.35v15.57H262.24V318.44Z"/><path class="cls-3" d="M326.23,318.52h57.51v12.57H345.39v6.29h38.35v11.37H345.39V355h38.35v12.61H326.23Z"/><path class="cls-3" d="M421.77,352.63l15-34.11h21.57l-25.19,49.13H410.37l-25.16-49.13h21.57Z"/><path class="cls-3" d="M522.69,341.22v3.58c.07,18.58-15.06,23.95-33.53,24s-33.63-5.41-33.56-24v-3.58c-.07-18.61,15.07-24,33.56-24S522.69,322.65,522.69,341.22Zm-19.16,1.17c.11-8-6.54-9.47-14.37-9.58-7.86.11-14.51,1.57-14.4,9.58v1.21c-.11,8,6.54,9.5,14.4,9.61,7.83-.11,14.48-1.57,14.37-9.61Z"/><path class="cls-9" d="M129.6,395.34a5.34,5.34,0,0,1-1.72-.27,3.3,3.3,0,0,1-1.24-.68l.33-.56a3.85,3.85,0,0,0,1.13.63,4.47,4.47,0,0,0,1.53.26,2.88,2.88,0,0,0,1.67-.38,1.21,1.21,0,0,0,.51-1,1,1,0,0,0-.26-.72,1.7,1.7,0,0,0-.7-.4,8,8,0,0,0-1-.23q-.52-.09-1-.21a3.83,3.83,0,0,1-1-.33,1.81,1.81,0,0,1-.7-.58,1.77,1.77,0,0,1-.26-1,1.73,1.73,0,0,1,.31-1,2.08,2.08,0,0,1,.94-.73,3.72,3.72,0,0,1,1.56-.28,5.19,5.19,0,0,1,1.39.2,3.55,3.55,0,0,1,1.14.52l-.32.57a2.93,2.93,0,0,0-1.05-.51,4.72,4.72,0,0,0-1.18-.16,2.58,2.58,0,0,0-1.58.4,1.24,1.24,0,0,0-.5,1,1.09,1.09,0,0,0,.26.75,1.79,1.79,0,0,0,.7.42,6.25,6.25,0,0,0,1,.24c.35.06.69.13,1,.21a4.09,4.09,0,0,1,1,.32,1.85,1.85,0,0,1,.7.56,1.7,1.7,0,0,1,.26,1,1.76,1.76,0,0,1-.33,1.06,2.15,2.15,0,0,1-1,.71A4.41,4.41,0,0,1,129.6,395.34Z"/><path class="cls-9" d="M141,395.34a3.85,3.85,0,0,1-1.92-.48,3.54,3.54,0,0,1-1.33-1.33,4.13,4.13,0,0,1,0-3.9,3.44,3.44,0,0,1,1.33-1.32,3.85,3.85,0,0,1,1.92-.48,3.78,3.78,0,0,1,1.63.34,2.91,2.91,0,0,1,1.18,1l-.52.38a2.5,2.5,0,0,0-1-.83,3,3,0,0,0-1.29-.27,3.1,3.1,0,0,0-1.55.39,2.76,2.76,0,0,0-1.08,1.09,3.32,3.32,0,0,0-.39,1.64,3.28,3.28,0,0,0,.39,1.63,2.7,2.7,0,0,0,1.08,1.09,3.1,3.1,0,0,0,1.55.39,3.2,3.2,0,0,0,1.29-.26,2.45,2.45,0,0,0,1-.84l.52.38a2.77,2.77,0,0,1-1.18,1A3.78,3.78,0,0,1,141,395.34Z"/><path class="cls-9" d="M152.22,395.34a3.69,3.69,0,0,1-1.89-.48,3.58,3.58,0,0,1-1.32-1.33,3.91,3.91,0,0,1-.49-1.94,3.87,3.87,0,0,1,.49-1.95,3.58,3.58,0,0,1,3.21-1.81,3.75,3.75,0,0,1,1.9.48,3.51,3.51,0,0,1,1.32,1.33,3.86,3.86,0,0,1,.48,1.95,3.9,3.9,0,0,1-.48,1.94,3.44,3.44,0,0,1-1.32,1.33A3.75,3.75,0,0,1,152.22,395.34Zm0-.64a3,3,0,0,0,1.53-.39,2.68,2.68,0,0,0,1.07-1.09,3.47,3.47,0,0,0,.38-1.63,3.42,3.42,0,0,0-.38-1.64,2.74,2.74,0,0,0-1.07-1.09,3.18,3.18,0,0,0-3.05,0,2.78,2.78,0,0,0-1.06,1.09,3.32,3.32,0,0,0-.39,1.64,3.36,3.36,0,0,0,.39,1.63,2.71,2.71,0,0,0,1.06,1.09A3,3,0,0,0,152.22,394.7Z"/><path class="cls-9" d="M164.67,395.34A3.68,3.68,0,0,1,163,395,2.52,2.52,0,0,1,162,394a3.67,3.67,0,0,1-.37-1.74v-4.32h.71v4.26a2.62,2.62,0,0,0,.63,1.9,2.4,2.4,0,0,0,1.8.65,2.81,2.81,0,0,0,1.45-.35,2.39,2.39,0,0,0,.94-1,3.44,3.44,0,0,0,.32-1.52v-3.94h.71v7.4h-.68v-2.06l.1.24a2.79,2.79,0,0,1-1.09,1.37A3.2,3.2,0,0,1,164.67,395.34Z"/><path class="cls-9" d="M173.47,388.5v-.61h4.42v.61Zm3.37,6.84a2,2,0,0,1-1.49-.54,2,2,0,0,1-.52-1.47v-7.06h.71v7a1.57,1.57,0,0,0,.35,1.09,1.31,1.31,0,0,0,1,.38,1.61,1.61,0,0,0,1.15-.41l.3.5a1.68,1.68,0,0,1-.69.39A2.57,2.57,0,0,1,176.84,395.34Z"/><path class="cls-9" d="M184.23,386.09a.61.61,0,0,1-.42-.17.58.58,0,0,1-.17-.4.57.57,0,0,1,.17-.41.61.61,0,0,1,.42-.17.54.54,0,0,1,.41.16.57.57,0,0,1,.17.41.58.58,0,0,1-.17.41A.55.55,0,0,1,184.23,386.09Zm-.36,9.2v-7.4h.71v7.4Z"/><path class="cls-9" d="M194.73,387.83a3.44,3.44,0,0,1,1.58.35,2.42,2.42,0,0,1,1.05,1.05,3.6,3.6,0,0,1,.37,1.73v4.33H197V391a2.64,2.64,0,0,0-.63-1.9,2.36,2.36,0,0,0-1.76-.65,3.08,3.08,0,0,0-1.5.35,2.46,2.46,0,0,0-1,1,3.33,3.33,0,0,0-.33,1.54v3.94h-.71v-7.4h.68v2.05l-.1-.22a2.85,2.85,0,0,1,1.12-1.39A3.52,3.52,0,0,1,194.73,387.83Z"/><path class="cls-9" d="M207.07,395a3.9,3.9,0,0,1-1.88-.46,3.61,3.61,0,0,1,0-6.28,3.9,3.9,0,0,1,1.88-.45,3.72,3.72,0,0,1,1.81.43,3.22,3.22,0,0,1,1.27,1.24,3.74,3.74,0,0,1,.47,1.92,3.78,3.78,0,0,1-.47,1.91,3.31,3.31,0,0,1-1.27,1.25A3.73,3.73,0,0,1,207.07,395Zm.2,3.07a5.75,5.75,0,0,1-1.91-.31,4,4,0,0,1-1.48-.86l.39-.54a3.87,3.87,0,0,0,1.32.79,4.8,4.8,0,0,0,1.67.28,3,3,0,0,0,2.19-.69,3,3,0,0,0,.7-2.18v-2.06l.14-1.1-.11-1.11v-2.42h.68v6.6a3.65,3.65,0,0,1-.9,2.73A3.74,3.74,0,0,1,207.27,398.09Zm-.14-3.71a3.2,3.2,0,0,0,1.57-.38,2.7,2.7,0,0,0,1.07-1.05,3,3,0,0,0,.39-1.53,3,3,0,0,0-.39-1.55,2.65,2.65,0,0,0-1.07-1,3.47,3.47,0,0,0-3.12,0,2.68,2.68,0,0,0-1.08,1,3,3,0,0,0-.39,1.55,3,3,0,0,0,.39,1.53,2.73,2.73,0,0,0,1.08,1.05A3.18,3.18,0,0,0,207.13,394.38Z"/><path class="cls-9" d="M223.37,388.5v-.61h4.42v.61Zm3.37,6.84a2,2,0,0,1-1.49-.54,2,2,0,0,1-.52-1.47v-7.06h.71v7a1.52,1.52,0,0,0,.36,1.09,1.29,1.29,0,0,0,1,.38,1.6,1.6,0,0,0,1.14-.41l.3.5a1.68,1.68,0,0,1-.69.39A2.53,2.53,0,0,1,226.74,395.34Z"/><path class="cls-9" d="M235.77,395.34a3.64,3.64,0,0,1-1.42-.26,2,2,0,0,1-.92-.74,1.9,1.9,0,0,1-.32-1.11,2.1,2.1,0,0,1,.26-1,2,2,0,0,1,.87-.75,3.9,3.9,0,0,1,1.63-.29h2.72v.55h-2.7a2.37,2.37,0,0,0-1.61.43,1.37,1.37,0,0,0-.46,1.06,1.39,1.39,0,0,0,.54,1.14,2.38,2.38,0,0,0,1.51.42,2.82,2.82,0,0,0,1.58-.42,2.57,2.57,0,0,0,1-1.24l.2.49a2.62,2.62,0,0,1-1,1.28A3.26,3.26,0,0,1,235.77,395.34Zm2.67,0V393.6l0-.26v-2.77a2.11,2.11,0,0,0-.56-1.58,2.27,2.27,0,0,0-1.64-.54,3.7,3.7,0,0,0-1.42.27,3.8,3.8,0,0,0-1.13.67l-.35-.51a3.88,3.88,0,0,1,1.33-.77,4.69,4.69,0,0,1,1.63-.28,3,3,0,0,1,2.11.69,2.74,2.74,0,0,1,.74,2.07v4.7Z"/><path class="cls-9" d="M245.58,395.29V384.77h.71v10.52Z"/><path class="cls-9" d="M255.83,395.34a4,4,0,0,1-2-.48,3.52,3.52,0,0,1-1.35-1.33,3.9,3.9,0,0,1-.48-1.94,4,4,0,0,1,.46-1.95,3.43,3.43,0,0,1,1.26-1.33,3.51,3.51,0,0,1,1.82-.48,3.56,3.56,0,0,1,1.81.47,3.38,3.38,0,0,1,1.26,1.31,4.07,4.07,0,0,1,.46,1.95.28.28,0,0,1,0,.09s0,.07,0,.11h-6.53v-.56h6.15l-.28.27a3.09,3.09,0,0,0-.36-1.55,2.79,2.79,0,0,0-1-1.08,2.74,2.74,0,0,0-1.47-.39,2.78,2.78,0,0,0-1.47.39,2.7,2.7,0,0,0-1,1.08,3.22,3.22,0,0,0-.37,1.57v.12a3.13,3.13,0,0,0,.4,1.61,2.73,2.73,0,0,0,1.12,1.09,3.28,3.28,0,0,0,1.61.39,3.46,3.46,0,0,0,1.33-.25,2.58,2.58,0,0,0,1-.78l.41.47a3.13,3.13,0,0,1-1.21.9A4.12,4.12,0,0,1,255.83,395.34Z"/><path class="cls-9" d="M268.44,387.83a3.41,3.41,0,0,1,1.58.35,2.42,2.42,0,0,1,1.05,1.05,3.6,3.6,0,0,1,.38,1.73v4.33h-.71V391a2.64,2.64,0,0,0-.63-1.9,2.36,2.36,0,0,0-1.77-.65,3.13,3.13,0,0,0-1.5.35,2.37,2.37,0,0,0-1,1,3.33,3.33,0,0,0-.33,1.54v3.94h-.71v-7.4h.68v2.05l-.1-.22a2.85,2.85,0,0,1,1.12-1.39A3.5,3.5,0,0,1,268.44,387.83Z"/><path class="cls-9" d="M276.69,388.5v-.61h4.42v.61Zm3.37,6.84a2,2,0,0,1-1.49-.54,2,2,0,0,1-.52-1.47v-7.06h.71v7a1.57,1.57,0,0,0,.35,1.09,1.31,1.31,0,0,0,1,.38,1.61,1.61,0,0,0,1.15-.41l.3.5a1.68,1.68,0,0,1-.69.39A2.57,2.57,0,0,1,280.06,395.34Z"/><path class="cls-9" d="M289,395.34a5.39,5.39,0,0,1-1.72-.27,3.38,3.38,0,0,1-1.24-.68l.33-.56a3.85,3.85,0,0,0,1.13.63,4.47,4.47,0,0,0,1.53.26,2.91,2.91,0,0,0,1.68-.38,1.21,1.21,0,0,0,.51-1,1,1,0,0,0-.27-.72,1.7,1.7,0,0,0-.7-.4,7.52,7.52,0,0,0-1-.23q-.53-.09-1.05-.21a3.63,3.63,0,0,1-1-.33,1.57,1.57,0,0,1-1-1.58,1.81,1.81,0,0,1,.31-1,2.08,2.08,0,0,1,.94-.73,3.72,3.72,0,0,1,1.56-.28,5.13,5.13,0,0,1,1.39.2,3.55,3.55,0,0,1,1.14.52l-.32.57a2.85,2.85,0,0,0-1.05-.51,4.72,4.72,0,0,0-1.18-.16,2.6,2.6,0,0,0-1.58.4,1.24,1.24,0,0,0-.5,1,1.09,1.09,0,0,0,.26.75,1.79,1.79,0,0,0,.7.42,6.55,6.55,0,0,0,1,.24l1,.21a4,4,0,0,1,1,.32,1.78,1.78,0,0,1,.7.56,1.62,1.62,0,0,1,.26,1,1.76,1.76,0,0,1-.33,1.06,2.17,2.17,0,0,1-1,.71A4.46,4.46,0,0,1,289,395.34Z"/><path class="cls-9" d="M296.73,397.31l.55-2.39.07.41a.62.62,0,0,1-.44-.17.58.58,0,0,1-.18-.43.54.54,0,0,1,.18-.42.57.57,0,0,1,.42-.17.58.58,0,0,1,.43.17.6.6,0,0,1,.16.42,1.27,1.27,0,0,1,0,.2,1.46,1.46,0,0,1-.05.2,2,2,0,0,1-.07.25l-.55,1.93Z"/><path class="cls-9" d="M314,395.34a4,4,0,0,1-2-.48,3.43,3.43,0,0,1-1.34-1.33,3.81,3.81,0,0,1-.49-1.94,4,4,0,0,1,.46-1.95,3.39,3.39,0,0,1,1.27-1.33,3.45,3.45,0,0,1,1.81-.48,3.56,3.56,0,0,1,1.81.47,3.38,3.38,0,0,1,1.26,1.31,4,4,0,0,1,.46,1.95.28.28,0,0,1,0,.09v.11h-6.54v-.56h6.15l-.28.27a3.09,3.09,0,0,0-.36-1.55,2.79,2.79,0,0,0-1-1.08,2.74,2.74,0,0,0-1.47-.39,2.72,2.72,0,0,0-2.48,1.47,3.22,3.22,0,0,0-.37,1.57v.12a3.13,3.13,0,0,0,.41,1.61,2.65,2.65,0,0,0,1.11,1.09,3.28,3.28,0,0,0,1.61.39,3.42,3.42,0,0,0,1.33-.25,2.58,2.58,0,0,0,1-.78l.41.47a3.13,3.13,0,0,1-1.21.9A4.12,4.12,0,0,1,314,395.34Z"/><path class="cls-9" d="M326.59,387.83a3.38,3.38,0,0,1,1.58.35,2.42,2.42,0,0,1,1.05,1.05,3.6,3.6,0,0,1,.38,1.73v4.33h-.71V391a2.64,2.64,0,0,0-.63-1.9,2.36,2.36,0,0,0-1.77-.65,3.13,3.13,0,0,0-1.5.35,2.43,2.43,0,0,0-1,1,3.33,3.33,0,0,0-.33,1.54v3.94H323v-7.4h.68v2.05l-.1-.22a2.85,2.85,0,0,1,1.12-1.39A3.5,3.5,0,0,1,326.59,387.83Z"/><path class="cls-9" d="M338.06,395.34a3.6,3.6,0,0,1-1.42-.26,2,2,0,0,1-.93-.74,2,2,0,0,1-.31-1.11,2,2,0,0,1,.26-1,1.93,1.93,0,0,1,.87-.75,3.9,3.9,0,0,1,1.63-.29h2.72v.55h-2.71a2.36,2.36,0,0,0-1.6.43,1.45,1.45,0,0,0,.07,2.2,2.43,2.43,0,0,0,1.52.42,2.84,2.84,0,0,0,1.58-.42,2.57,2.57,0,0,0,1-1.24l.19.49a2.54,2.54,0,0,1-1,1.28A3.28,3.28,0,0,1,338.06,395.34Zm2.66,0V393.6l0-.26v-2.77a2.11,2.11,0,0,0-.56-1.58,2.28,2.28,0,0,0-1.64-.54,3.75,3.75,0,0,0-1.43.27,3.88,3.88,0,0,0-1.12.67l-.36-.51a3.92,3.92,0,0,1,1.34-.77,4.69,4.69,0,0,1,1.63-.28,3,3,0,0,1,2.11.69,2.74,2.74,0,0,1,.73,2.07v4.7Z"/><path class="cls-9" d="M347.87,395.29V384.77h.71v5.51l-.15,1.29.12,1.29v2.43Zm3.71,0a3.47,3.47,0,0,1-1.76-.45,3.26,3.26,0,0,1-1.25-1.3,4.62,4.62,0,0,1,0-4,3.37,3.37,0,0,1,1.25-1.29,3.47,3.47,0,0,1,1.76-.45,3.68,3.68,0,0,1,1.88.48,3.34,3.34,0,0,1,1.3,1.31,3.94,3.94,0,0,1,.48,2,3.89,3.89,0,0,1-.48,2,3.39,3.39,0,0,1-1.3,1.33A3.77,3.77,0,0,1,351.58,395.34Zm0-.64a3,3,0,0,0,1.53-.39,2.74,2.74,0,0,0,1.07-1.09,3.36,3.36,0,0,0,.39-1.63,3.32,3.32,0,0,0-.39-1.64,2.8,2.8,0,0,0-1.07-1.09,3.2,3.2,0,0,0-3.06,0A2.85,2.85,0,0,0,349,390a3.32,3.32,0,0,0-.39,1.64,3.36,3.36,0,0,0,.39,1.63,2.78,2.78,0,0,0,1.06,1.09A3,3,0,0,0,351.54,394.7Z"/><path class="cls-9" d="M361,395.29V384.77h.71v10.52Z"/><path class="cls-9" d="M368.57,386.09a.58.58,0,0,1-.58-.57.57.57,0,0,1,.17-.41.58.58,0,0,1,.41-.17.57.57,0,0,1,.42.16.56.56,0,0,1,.16.41.56.56,0,0,1-.58.58Zm-.35,9.2v-7.4h.71v7.4Z"/><path class="cls-9" d="M379.08,387.83a3.44,3.44,0,0,1,1.58.35,2.47,2.47,0,0,1,1,1.05,3.6,3.6,0,0,1,.37,1.73v4.33h-.71V391a2.64,2.64,0,0,0-.63-1.9,2.36,2.36,0,0,0-1.76-.65,3.15,3.15,0,0,0-1.51.35,2.5,2.5,0,0,0-1,1,3.33,3.33,0,0,0-.33,1.54v3.94h-.71v-7.4h.68v2.05l-.1-.22a2.85,2.85,0,0,1,1.12-1.39A3.52,3.52,0,0,1,379.08,387.83Z"/><path class="cls-9" d="M391.42,395a3.9,3.9,0,0,1-1.88-.46,3.61,3.61,0,0,1,0-6.28,3.9,3.9,0,0,1,1.88-.45,3.75,3.75,0,0,1,1.81.43,3.22,3.22,0,0,1,1.27,1.24,3.74,3.74,0,0,1,.46,1.92,3.78,3.78,0,0,1-.46,1.91,3.31,3.31,0,0,1-1.27,1.25A3.76,3.76,0,0,1,391.42,395Zm.2,3.07a5.75,5.75,0,0,1-1.91-.31,4,4,0,0,1-1.48-.86l.38-.54a4,4,0,0,0,1.33.79,4.76,4.76,0,0,0,1.67.28,3,3,0,0,0,2.19-.69,3,3,0,0,0,.7-2.18v-2.06l.14-1.1-.11-1.11v-2.42h.68v6.6a3.69,3.69,0,0,1-.9,2.73A3.74,3.74,0,0,1,391.62,398.09Zm-.14-3.71a3.2,3.2,0,0,0,1.57-.38,2.77,2.77,0,0,0,1.07-1.05,3,3,0,0,0,.39-1.53,3,3,0,0,0-.39-1.55,2.72,2.72,0,0,0-1.07-1,3.2,3.2,0,0,0-1.57-.37,3.14,3.14,0,0,0-1.55.37,2.68,2.68,0,0,0-1.08,1,3,3,0,0,0-.39,1.55,3,3,0,0,0,.39,1.53,2.73,2.73,0,0,0,1.08,1.05A3.15,3.15,0,0,0,391.48,394.38Z"/><path class="cls-9" d="M408.94,395.29V384.77h.71v5.51l-.14,1.29.11,1.29v2.43Zm3.71,0a3.47,3.47,0,0,1-1.76-.45,3.26,3.26,0,0,1-1.25-1.3,4.62,4.62,0,0,1,0-4,3.37,3.37,0,0,1,1.25-1.29,3.47,3.47,0,0,1,1.76-.45,3.68,3.68,0,0,1,1.88.48,3.34,3.34,0,0,1,1.3,1.31,3.94,3.94,0,0,1,.48,2,3.89,3.89,0,0,1-.48,2,3.39,3.39,0,0,1-1.3,1.33A3.77,3.77,0,0,1,412.65,395.34Zm0-.64a3,3,0,0,0,1.53-.39,2.74,2.74,0,0,0,1.07-1.09,3.36,3.36,0,0,0,.39-1.63,3.32,3.32,0,0,0-.39-1.64,2.8,2.8,0,0,0-1.07-1.09,3,3,0,0,0-1.53-.39,2.94,2.94,0,0,0-1.52.39A2.8,2.8,0,0,0,410,390a3.32,3.32,0,0,0-.39,1.64,3.36,3.36,0,0,0,.39,1.63,2.74,2.74,0,0,0,1.07,1.09A2.94,2.94,0,0,0,412.61,394.7Z"/><path class="cls-9" d="M425.05,395.34a3.64,3.64,0,0,1-1.64-.34,2.52,2.52,0,0,1-1.07-1.05,3.67,3.67,0,0,1-.38-1.74v-4.32h.71v4.26a2.63,2.63,0,0,0,.64,1.9,2.4,2.4,0,0,0,1.8.65,2.81,2.81,0,0,0,1.45-.35,2.43,2.43,0,0,0,.93-1,3.31,3.31,0,0,0,.33-1.52v-3.94h.71v7.4h-.68v-2.06l.09.24a2.71,2.71,0,0,1-1.08,1.37A3.23,3.23,0,0,1,425.05,395.34Z"/><path class="cls-9" d="M436.94,395.34a5.39,5.39,0,0,1-1.72-.27,3.38,3.38,0,0,1-1.24-.68l.33-.56a3.85,3.85,0,0,0,1.13.63,4.51,4.51,0,0,0,1.53.26,2.89,2.89,0,0,0,1.68-.38,1.21,1.21,0,0,0,.51-1,1,1,0,0,0-.27-.72,1.7,1.7,0,0,0-.7-.4,7.52,7.52,0,0,0-1-.23q-.53-.09-1.05-.21a3.63,3.63,0,0,1-1-.33,1.57,1.57,0,0,1-1-1.58,1.81,1.81,0,0,1,.31-1,2.08,2.08,0,0,1,.94-.73,3.75,3.75,0,0,1,1.56-.28,5.13,5.13,0,0,1,1.39.2,3.72,3.72,0,0,1,1.15.52l-.33.57a2.85,2.85,0,0,0-1-.51,4.72,4.72,0,0,0-1.18-.16,2.6,2.6,0,0,0-1.58.4,1.24,1.24,0,0,0-.5,1,1.09,1.09,0,0,0,.26.75,1.79,1.79,0,0,0,.7.42,6.55,6.55,0,0,0,1,.24l1.05.21a4,4,0,0,1,1,.32,1.78,1.78,0,0,1,.7.56,1.62,1.62,0,0,1,.26,1,1.76,1.76,0,0,1-.33,1.06,2.17,2.17,0,0,1-1,.71A4.46,4.46,0,0,1,436.94,395.34Z"/><path class="cls-9" d="M445.75,386.09a.61.61,0,0,1-.42-.17.58.58,0,0,1-.17-.4.57.57,0,0,1,.17-.41.61.61,0,0,1,.42-.17.53.53,0,0,1,.41.16.57.57,0,0,1,.17.41.58.58,0,0,1-.17.41A.53.53,0,0,1,445.75,386.09Zm-.36,9.2v-7.4h.71v7.4Z"/><path class="cls-9" d="M456.25,387.83a3.44,3.44,0,0,1,1.58.35,2.42,2.42,0,0,1,1.05,1.05,3.6,3.6,0,0,1,.37,1.73v4.33h-.7V391a2.64,2.64,0,0,0-.64-1.9,2.34,2.34,0,0,0-1.76-.65,3.08,3.08,0,0,0-1.5.35,2.37,2.37,0,0,0-1,1,3.21,3.21,0,0,0-.34,1.54v3.94h-.71v-7.4h.69v2.05l-.1-.22a2.79,2.79,0,0,1,1.12-1.39A3.48,3.48,0,0,1,456.25,387.83Z"/><path class="cls-9" d="M468.72,395.34a4,4,0,0,1-2-.48,3.43,3.43,0,0,1-1.34-1.33,3.81,3.81,0,0,1-.49-1.94,4,4,0,0,1,.46-1.95,3.42,3.42,0,0,1,3.08-1.81,3.56,3.56,0,0,1,1.81.47,3.38,3.38,0,0,1,1.26,1.31,4,4,0,0,1,.46,1.95.28.28,0,0,1,0,.09v.11h-6.54v-.56h6.15l-.28.27a3.09,3.09,0,0,0-.36-1.55,2.84,2.84,0,0,0-1-1.08,2.81,2.81,0,0,0-4,1.08,3.34,3.34,0,0,0-.37,1.57v.12a3.13,3.13,0,0,0,.41,1.61,2.77,2.77,0,0,0,1.11,1.09,3.28,3.28,0,0,0,1.61.39,3.42,3.42,0,0,0,1.33-.25,2.58,2.58,0,0,0,1-.78l.41.47a3.13,3.13,0,0,1-1.21.9A4.12,4.12,0,0,1,468.72,395.34Z"/><path class="cls-9" d="M479.59,395.34a5.34,5.34,0,0,1-1.72-.27,3.3,3.3,0,0,1-1.24-.68l.33-.56a3.85,3.85,0,0,0,1.13.63,4.47,4.47,0,0,0,1.53.26,2.88,2.88,0,0,0,1.67-.38,1.21,1.21,0,0,0,.51-1,1,1,0,0,0-.26-.72,1.7,1.7,0,0,0-.7-.4,7.69,7.69,0,0,0-1-.23l-1-.21a3.7,3.7,0,0,1-1-.33,1.81,1.81,0,0,1-.7-.58,1.77,1.77,0,0,1-.26-1,1.73,1.73,0,0,1,.31-1,2.08,2.08,0,0,1,.94-.73,3.7,3.7,0,0,1,1.55-.28,5.2,5.2,0,0,1,1.4.2,3.55,3.55,0,0,1,1.14.52l-.32.57a3,3,0,0,0-1.05-.51,4.72,4.72,0,0,0-1.18-.16,2.58,2.58,0,0,0-1.58.4,1.24,1.24,0,0,0-.5,1,1,1,0,0,0,.26.75,1.72,1.72,0,0,0,.7.42,6.41,6.41,0,0,0,1,.24l1.05.21a4.25,4.25,0,0,1,1,.32,1.85,1.85,0,0,1,.7.56,1.7,1.7,0,0,1,.26,1,1.76,1.76,0,0,1-.33,1.06,2.15,2.15,0,0,1-1,.71A4.41,4.41,0,0,1,479.59,395.34Z"/><path class="cls-9" d="M489.91,395.34a5.34,5.34,0,0,1-1.72-.27,3.22,3.22,0,0,1-1.24-.68l.32-.56a4.06,4.06,0,0,0,1.14.63,4.47,4.47,0,0,0,1.53.26,2.88,2.88,0,0,0,1.67-.38,1.21,1.21,0,0,0,.51-1,1,1,0,0,0-.26-.72,1.77,1.77,0,0,0-.7-.4,8.13,8.13,0,0,0-1-.23q-.53-.09-1.05-.21a3.63,3.63,0,0,1-1-.33,1.74,1.74,0,0,1-.7-.58,1.69,1.69,0,0,1-.26-1,1.73,1.73,0,0,1,.31-1,2.1,2.1,0,0,1,.93-.73,3.79,3.79,0,0,1,1.56-.28,5.2,5.2,0,0,1,1.4.2,3.55,3.55,0,0,1,1.14.52l-.33.57a2.89,2.89,0,0,0-1-.51,4.72,4.72,0,0,0-1.18-.16,2.56,2.56,0,0,0-1.58.4,1.21,1.21,0,0,0-.5,1,1,1,0,0,0,.26.75,1.72,1.72,0,0,0,.7.42,6.12,6.12,0,0,0,1,.24l1,.21a4.25,4.25,0,0,1,1,.32,1.85,1.85,0,0,1,.7.56,1.7,1.7,0,0,1,.26,1,1.76,1.76,0,0,1-.33,1.06,2.21,2.21,0,0,1-1,.71A4.41,4.41,0,0,1,489.91,395.34Z"/><path class="cls-9" d="M501.36,395.34a4,4,0,0,1-2-.48,3.43,3.43,0,0,1-1.34-1.33,3.81,3.81,0,0,1-.49-1.94,4,4,0,0,1,.46-1.95,3.42,3.42,0,0,1,3.08-1.81,3.56,3.56,0,0,1,1.81.47,3.38,3.38,0,0,1,1.26,1.31,4,4,0,0,1,.46,1.95.28.28,0,0,1,0,.09v.11h-6.54v-.56h6.15l-.28.27a3.09,3.09,0,0,0-.36-1.55,2.84,2.84,0,0,0-1-1.08,2.81,2.81,0,0,0-4,1.08,3.34,3.34,0,0,0-.37,1.57v.12a3.13,3.13,0,0,0,.41,1.61,2.77,2.77,0,0,0,1.11,1.09,3.29,3.29,0,0,0,1.62.39,3.41,3.41,0,0,0,1.32-.25,2.58,2.58,0,0,0,1-.78l.41.47a3.13,3.13,0,0,1-1.21.9A4.12,4.12,0,0,1,501.36,395.34Z"/><path class="cls-9" d="M512.23,395.34a5.34,5.34,0,0,1-1.72-.27,3.3,3.3,0,0,1-1.24-.68l.33-.56a3.85,3.85,0,0,0,1.13.63,4.47,4.47,0,0,0,1.53.26,2.88,2.88,0,0,0,1.67-.38,1.21,1.21,0,0,0,.51-1,1,1,0,0,0-.26-.72,1.7,1.7,0,0,0-.7-.4,8,8,0,0,0-1-.23q-.53-.09-1-.21a3.83,3.83,0,0,1-1-.33,1.81,1.81,0,0,1-.7-.58,1.77,1.77,0,0,1-.26-1,1.73,1.73,0,0,1,.31-1,2.08,2.08,0,0,1,.94-.73,3.72,3.72,0,0,1,1.56-.28,5.19,5.19,0,0,1,1.39.2,3.55,3.55,0,0,1,1.14.52l-.32.57a2.93,2.93,0,0,0-1-.51,4.72,4.72,0,0,0-1.18-.16,2.58,2.58,0,0,0-1.58.4,1.24,1.24,0,0,0-.5,1,1.09,1.09,0,0,0,.26.75,1.79,1.79,0,0,0,.7.42,6.25,6.25,0,0,0,1,.24c.35.06.69.13,1,.21a4.09,4.09,0,0,1,1,.32,1.85,1.85,0,0,1,.7.56,1.7,1.7,0,0,1,.26,1,1.76,1.76,0,0,1-.33,1.06,2.15,2.15,0,0,1-1,.71A4.41,4.41,0,0,1,512.23,395.34Z"/></svg>